HIERARCHY
ROOT Hips
{
	OFFSET 0.00000 0.00000 0.00000
	CHANNELS 6 Xposition Yposition Zposition Zrotation Yrotation Xrotation 
	JOINT LHipJoint
	{
		OFFSET 0 0 0
		CHANNELS 3 Zrotation Yrotation Xrotation
		JOINT LeftUpLeg
		{
			OFFSET 1.73240 -1.89999 0.57994
			CHANNELS 3 Zrotation Yrotation Xrotation
			JOINT LeftLeg
			{
				OFFSET 2.43106 -6.67930 0.00000
				CHANNELS 3 Zrotation Yrotation Xrotation
				JOINT LeftFoot
				{
					OFFSET 2.78854 -7.66147 0.00000
					CHANNELS 3 Zrotation Yrotation Xrotation
					JOINT LeftToeBase
					{
						OFFSET 0.17314 -0.47571 2.01064
						CHANNELS 3 Zrotation Yrotation Xrotation
						End Site
						{
							OFFSET 0.00000 -0.00000 1.04147
						}
					}
				}
			}
		}
	}
	JOINT RHipJoint
	{
		OFFSET 0 0 0
		CHANNELS 3 Zrotation Yrotation Xrotation
		JOINT RightUpLeg
		{
			OFFSET -1.57078 -1.89998 0.57994
			CHANNELS 3 Zrotation Yrotation Xrotation
			JOINT RightLeg
			{
				OFFSET -2.50166 -6.87326 0.00000
				CHANNELS 3 Zrotation Yrotation Xrotation
				JOINT RightFoot
				{
					OFFSET -2.77304 -7.61886 0.00000
					CHANNELS 3 Zrotation Yrotation Xrotation
					JOINT RightToeBase
					{
						OFFSET -0.23513 -0.64602 2.11039
						CHANNELS 3 Zrotation Yrotation Xrotation
						End Site
						{
							OFFSET -0.00000 -0.00000 1.10597
						}
					}
				}
			}
		}
	}
	JOINT LowerBack
	{
		OFFSET 0 0 0
		CHANNELS 3 Zrotation Yrotation Xrotation
		JOINT Spine
		{
			OFFSET -0.00908 2.00015 -0.35323
			CHANNELS 3 Zrotation Yrotation Xrotation
			JOINT Spine1
			{
				OFFSET 0.05647 2.02258 0.04270
				CHANNELS 3 Zrotation Yrotation Xrotation
				JOINT Neck
				{
					OFFSET 0 0 0
					CHANNELS 3 Zrotation Yrotation Xrotation
					JOINT Neck1
					{
						OFFSET -0.02074 1.73711 0.13117
						CHANNELS 3 Zrotation Yrotation Xrotation
						JOINT Head
						{
							OFFSET -0.02359 1.73615 -0.24320
							CHANNELS 3 Zrotation Yrotation Xrotation
							End Site
							{
								OFFSET -0.00579 1.75982 -0.09688
							}
						}
					}
				}
				JOINT LeftShoulder
				{
					OFFSET 0 0 0
					CHANNELS 3 Zrotation Yrotation Xrotation
					JOINT LeftArm
					{
						OFFSET 3.20537 1.11432 -0.27680
						CHANNELS 3 Zrotation Yrotation Xrotation
						JOINT LeftForeArm
						{
							OFFSET 5.05923 -0.00000 -0.00000
							CHANNELS 3 Zrotation Yrotation Xrotation
							JOINT LeftHand
							{
								OFFSET 3.51996 -0.00000 0.00000
								CHANNELS 3 Zrotation Yrotation Xrotation
								JOINT LeftFingerBase
								{
									OFFSET 0 0 0
									CHANNELS 3 Zrotation Yrotation Xrotation
									JOINT LeftHandIndex1
									{
										OFFSET 0.65238 -0.00000 0.00000
										CHANNELS 3 Zrotation Yrotation Xrotation
										End Site
										{
											OFFSET 0.52596 -0.00000 0.00000
										}
									}
								}
								JOINT LThumb
								{
									OFFSET 0 0 0
									CHANNELS 3 Zrotation Yrotation Xrotation
									End Site
									{
										OFFSET 0.53399 -0.00000 0.53399
									}
								}
							}
						}
					}
				}
				JOINT RightShoulder
				{
					OFFSET 0 0 0
					CHANNELS 3 Zrotation Yrotation Xrotation
					JOINT RightArm
					{
						OFFSET -2.96983 1.42602 -0.37449
						CHANNELS 3 Zrotation Yrotation Xrotation
						JOINT RightForeArm
						{
							OFFSET -5.40867 -0.00000 0.00000
							CHANNELS 3 Zrotation Yrotation Xrotation
							JOINT RightHand
							{
								OFFSET -3.12964 -0.00000 0.00000
								CHANNELS 3 Zrotation Yrotation Xrotation
								JOINT RightFingerBase
								{
									OFFSET 0 0 0
									CHANNELS 3 Zrotation Yrotation Xrotation
									JOINT RightHandIndex1
									{
										OFFSET -0.83271 -0.00000 0.00000
										CHANNELS 3 Zrotation Yrotation Xrotation
										End Site
										{
											OFFSET -0.67135 -0.00000 0.00000
										}
									}
								}
								JOINT RThumb
								{
									OFFSET 0 0 0
									CHANNELS 3 Zrotation Yrotation Xrotation
									End Site
									{
										OFFSET -0.68160 -0.00000 0.68160
									}
								}
							}
						}
					}
				}
			}
		}
	}
}
MOTION
Frames: 13
Frame Time: .0083333
3.4275 17.5962 -11.7890 5.7844 -3.3493 -3.4365 0.0000 0.0000 0.0000 -30.0515 -2.7375 1.4367 1.7268 8.2722 23.5439 1.0379 -4.8301 -18.2487 0.1393 -2.4057 -6.6282 0.0000 0.0000 0.0000 14.6710 6.7768 -33.1210 -7.1070 -15.4213 49.2777 -0.2125 -6.5907 -13.5203 -0.2564 -3.2582 8.9984 -7.3419 -2.2155 19.3503 1.3490 -4.4007 0.9407 6.8287 -1.7614 -9.1544 -4.1301 -6.4635 -5.3800 -1.9794 -8.2798 32.4494 -0.9597 -4.5260 11.5404 0.0000 0.0000 0.0000 -77.1312 2.2058 24.2914 34.1734 -44.2128 -14.2338 -0.0000 0.0000 -7.5744 20.8364 41.2130 14.0770 -7.1250 0.0000 -0.0000 -24.7293 71.7747 -16.0443 0.0000 0.0000 0.0000 61.0165 12.6911 -10.1078 -107.4269 58.8208 -75.0324 0.0000 0.0000 11.4349 -13.4252 5.9850 -1.4257 7.1250 -0.0000 -0.0000 9.8274 -23.8397 5.0892
3.4244 17.5901 -11.6354 5.8864 -3.1812 -3.3278 0.0000 0.0000 0.0000 -30.3149 -2.6617 2.2354 1.6399 8.0719 22.9327 1.0409 -4.5142 -18.3037 0.0989 -2.0284 -5.5841 0.0000 0.0000 0.0000 14.4761 6.9292 -33.4095 -6.4977 -14.8939 46.9480 -0.1537 -7.1430 -13.1567 -0.3143 -3.6042 9.9657 -7.4797 -2.2496 19.3741 1.3911 -4.4778 0.8379 6.9803 -1.7821 -9.2557 -4.1197 -6.4319 -5.9944 -2.1231 -8.1744 32.8767 -1.0435 -4.4895 11.8276 -0.0000 0.0000 0.0000 -77.1611 1.7927 24.6759 34.4648 -44.4262 -14.4375 -0.0000 0.0000 -7.9223 21.0226 40.5646 14.0321 -7.1250 0.0000 -0.0000 -23.3831 71.2772 -14.8900 -0.0000 0.0000 0.0000 60.7228 13.3078 -8.4169 -104.5959 59.1795 -72.6056 0.0000 0.0000 13.0084 -13.8878 6.1704 -1.5223 7.1250 -0.0000 -0.0000 9.4769 -23.6389 4.9472
3.4180 17.5789 -11.4748 6.0075 -3.0642 -3.3098 0.0000 0.0000 0.0000 -30.5937 -2.4636 3.1921 1.5460 7.8485 22.2549 1.0589 -4.0927 -18.5139 0.1137 -2.1736 -5.9856 0.0000 0.0000 0.0000 14.2312 7.2002 -33.4808 -5.8967 -14.3275 44.5657 -0.0911 -7.7167 -12.7608 -0.3824 -3.9715 10.9964 -7.6325 -2.2369 19.4666 1.4226 -4.5052 0.6911 7.1249 -1.7709 -9.4526 -4.3295 -6.3873 -5.7278 -2.0955 -8.0961 32.9368 -0.9800 -4.4783 11.8112 0.0000 -0.0000 0.0000 -77.2392 1.6320 25.1177 34.9336 -44.7647 -14.7666 -0.0000 0.0000 -7.8327 20.9093 40.7127 13.9929 -7.1250 0.0000 -0.0000 -23.7726 71.3678 -15.1933 0.0000 -0.0000 0.0000 60.5476 13.7243 -6.8676 -101.4556 59.4983 -69.9041 0.0000 0.0000 14.6703 -14.2403 6.6206 -1.6760 7.1250 -0.0000 -0.0000 9.1950 -23.1707 4.8965
3.4086 17.5678 -11.3157 6.2003 -3.0031 -3.2249 0.0000 0.0000 0.0000 -30.9130 -2.2163 4.0425 1.4567 7.6284 21.5911 1.0797 -3.7689 -18.7442 0.1395 -2.4075 -6.6331 0.0000 0.0000 0.0000 13.8731 7.7032 -33.5060 -5.3050 -13.7193 42.1244 -0.0377 -8.3363 -12.5978 -0.4543 -4.3240 11.9900 -7.7541 -2.1328 19.3893 1.3416 -4.3997 0.6249 7.0756 -1.7121 -9.4999 -4.3983 -6.4599 -5.4454 -1.9800 -8.2329 32.8309 -0.9262 -4.5350 11.7231 0.0000 0.0000 0.0000 -77.1759 1.1921 25.7065 35.3387 -45.0525 -15.0526 -0.0000 0.0000 -7.7584 20.8184 41.2198 14.0661 -7.1250 0.0000 -0.0000 -24.7637 71.7743 -16.0671 0.0000 0.0000 0.0000 60.5697 14.0731 -5.5814 -98.1982 59.7445 -67.0938 0.0000 0.0000 16.2412 -14.9675 6.7573 -1.8017 7.1250 -0.0000 -0.0000 8.6565 -23.0069 4.6361
3.3993 17.5619 -11.1607 6.3226 -2.8496 -3.0481 0.0000 0.0000 0.0000 -31.1291 -2.0622 4.7998 1.3675 7.4012 20.9095 1.0890 -3.5506 -18.8594 0.1631 -2.6023 -7.1735 0.0000 0.0000 0.0000 13.5283 8.2120 -33.5145 -4.7233 -13.0653 39.6134 0.0875 -9.4045 -11.7352 -0.3869 -3.9946 11.0614 -7.7739 -2.0578 19.1401 1.2528 -4.2891 0.7236 6.9362 -1.6778 -9.2757 -4.3672 -6.5694 -5.7221 -1.7932 -8.4308 32.7488 -0.8953 -4.5929 11.7562 -0.0000 0.0000 0.0000 -77.0339 0.2501 26.2755 35.4807 -45.1523 -15.1531 -0.0000 0.0000 -7.5559 20.6248 41.4618 13.9932 -7.1250 0.0000 -0.0000 -25.4379 71.9143 -16.5976 -0.0000 0.0000 0.0000 60.6995 14.6913 -4.4645 -94.3882 59.9271 -63.7993 0.0000 0.0000 17.7277 -15.8989 6.9382 -1.9706 7.1250 -0.0000 -0.0000 7.9682 -22.7875 4.3006
3.3820 17.5603 -11.0138 6.2780 -2.4505 -2.8275 0.0000 0.0000 0.0000 -31.0517 -1.9278 5.4797 1.2742 7.1541 20.1728 1.0747 -3.5440 -18.7318 0.2253 -3.0554 -8.4329 0.0000 0.0000 0.0000 13.2723 8.7708 -33.4303 -4.1683 -12.3810 37.0935 0.1827 -10.5297 -11.6667 -0.4238 -4.1780 11.5780 -7.9094 -2.0938 20.0586 1.4226 -4.4562 0.0305 7.3568 -1.6436 -10.5167 -4.5470 -6.4922 -5.6076 -1.9418 -8.2670 33.2263 -0.9124 -4.5620 11.9286 -0.0000 0.0000 0.0000 -77.2245 0.7077 26.8939 35.7512 -45.3411 -15.3452 -0.0000 0.0000 -7.5063 20.6148 41.6414 14.0337 -7.1250 0.0000 -0.0000 -25.7795 72.0633 -16.9114 -0.0000 0.0000 0.0000 60.5812 14.4462 -2.7637 -90.3066 59.9996 -60.2655 0.0000 0.0000 19.1425 -15.9702 7.5424 -2.1513 7.1250 -0.0000 -0.0000 7.8963 -22.1630 4.3747
3.3663 17.5548 -10.8513 6.3007 -2.1505 -2.7510 0.0000 0.0000 0.0000 -31.0300 -1.5813 6.4423 1.1582 6.8325 19.2201 1.0537 -3.5335 -18.5421 0.2876 -3.4489 -9.5311 0.0000 0.0000 0.0000 12.9143 9.3682 -33.1504 -3.6625 -11.6972 34.6691 0.2506 -11.4619 -11.9901 -0.4310 -4.2132 11.6772 -7.8882 -2.1490 19.3998 1.3440 -4.4646 0.3233 7.1883 -1.7065 -9.8233 -4.4703 -6.4751 -5.6279 -1.7350 -8.3060 33.0336 -0.8474 -4.5430 11.8601 -0.0000 -0.0000 0.0000 -76.9710 -0.1707 27.5571 36.0092 -45.5194 -15.5290 -0.0000 0.0000 -7.7388 20.6940 42.1670 14.2292 -7.1250 0.0000 -0.0000 -26.6787 72.5327 -17.7920 -0.0000 -0.0000 0.0000 60.8005 15.2504 -1.9714 -86.0870 59.9421 -56.6119 0.0000 0.0000 20.6286 -15.7671 7.9963 -2.2493 7.1250 -0.0000 -0.0000 8.0300 -21.7054 4.5346
3.3538 17.5424 -10.6808 6.5998 -1.8380 -2.6598 0.0000 0.0000 0.0000 -31.2738 -1.1348 7.5097 1.0343 6.4685 18.1501 1.0369 -3.8291 -18.3465 0.2748 -3.3721 -9.3165 0.0000 0.0000 0.0000 12.2245 9.7848 -32.9425 -3.1964 -11.0063 32.3013 0.3244 -12.2799 -12.0675 -0.2977 -3.5082 9.6969 -7.8281 -2.0116 18.9111 1.0732 -4.2295 0.8938 6.7273 -1.6741 -8.9793 -4.0315 -6.7180 -7.2592 -1.6190 -8.6898 33.2824 -1.0047 -4.6245 12.2810 0.0000 -0.0000 0.0000 -76.6342 -1.8947 28.4125 36.2857 -45.7087 -15.7266 -0.0000 0.0000 -7.7209 20.0729 43.2442 14.0550 -7.1250 0.0000 -0.0000 -29.6436 73.1940 -20.2729 0.0000 -0.0000 0.0000 61.0456 16.3192 -1.9065 -81.7399 59.7406 -52.8528 0.0000 0.0000 21.7491 -16.1808 8.1084 -2.3436 7.1250 -0.0000 -0.0000 7.7276 -21.5710 4.3845
3.3447 17.5289 -10.4940 6.9732 -1.5569 -2.5956 0.0000 0.0000 0.0000 -31.6070 -0.6314 8.8027 0.8927 6.0223 16.8490 1.0176 -4.0950 -18.1357 0.2452 -3.1867 -8.7991 0.0000 0.0000 0.0000 11.4098 10.1324 -32.6678 -2.7902 -10.3475 30.1094 0.3490 -12.7356 -12.5290 -0.2873 -3.4470 9.5259 -8.0225 -1.9426 18.6023 0.9186 -4.1676 0.9109 6.6287 -1.6516 -8.7982 -3.8714 -6.8002 -7.6732 -1.7221 -8.7974 33.6160 -1.1139 -4.6576 12.4916 -0.0000 -0.0000 0.0000 -76.5267 -2.5392 29.2387 36.1950 -45.6469 -15.6618 -0.0000 0.0000 -7.3628 21.8225 39.5669 14.3089 -7.1250 0.0000 -0.0000 -20.7954 70.6613 -12.9157 -0.0000 -0.0000 0.0000 61.2071 16.5613 -1.0241 -77.3828 59.3899 -49.0956 0.0000 0.0000 22.5945 -16.6960 7.9229 -2.3675 7.1250 -0.0000 -0.0000 7.3592 -21.7383 4.1438
3.3208 17.5228 -10.3248 6.8738 -1.1995 -2.4569 0.0000 0.0000 0.0000 -31.3391 -0.3681 10.0382 0.7523 5.5397 15.4545 0.9769 -4.2448 -17.7396 0.2462 -3.1927 -8.8157 0.0000 0.0000 0.0000 10.9126 11.2682 -32.2004 -2.4219 -9.6945 27.9929 0.3941 -13.7205 -13.7484 -0.3738 -3.9268 10.8707 -7.9755 -1.9284 18.6683 0.9610 -4.1502 0.7063 6.6596 -1.6218 -9.0654 -4.0778 -6.8944 -6.9691 -1.4616 -8.9913 33.2318 -0.9612 -4.7454 12.2168 -0.0000 -0.0000 0.0000 -76.4826 -2.6884 30.0416 36.3489 -45.7517 -15.7719 -0.0000 0.0000 -6.9862 21.0967 41.5249 14.3468 -7.1250 0.0000 -0.0000 -24.9670 72.1313 -16.3953 -0.0000 -0.0000 0.0000 61.4612 16.7799 -0.4167 -72.6472 58.8311 -45.0310 0.0000 0.0000 24.0274 -16.3105 8.4756 -2.4696 7.1250 -0.0000 -0.0000 7.6253 -21.1864 4.3925
3.2983 17.5067 -10.1442 7.0067 -0.7590 -2.4556 0.0000 0.0000 0.0000 -31.3066 0.0601 11.4269 0.6274 5.0685 14.1039 0.9275 -4.3977 -17.2562 0.2785 -3.3942 -9.3781 0.0000 0.0000 0.0000 10.1850 11.9942 -31.6876 -2.0943 -9.0597 25.9823 0.3941 -14.3300 -15.0219 -0.4924 -4.4993 12.4858 -8.1385 -1.9483 18.6171 0.9342 -4.2120 0.6481 6.7364 -1.6421 -9.0823 -4.2793 -6.9575 -6.4695 -1.2380 -9.1265 33.0026 -0.8312 -4.8083 12.0482 0.0000 0.0000 0.0000 -76.5079 -3.0784 30.6995 36.3344 -45.7418 -15.7615 -0.0000 0.0000 -6.6727 20.4382 42.6931 14.1811 -7.1250 0.0000 -0.0000 -28.0431 72.8778 -18.9452 0.0000 0.0000 0.0000 61.7462 17.1104 0.3706 -68.0186 58.0932 -41.0854 0.0000 0.0000 24.9357 -16.0961 8.7902 -2.5249 7.1250 -0.0000 -0.0000 7.7727 -20.8733 4.5344
3.2752 17.4896 -9.9653 7.0785 -0.3790 -2.4121 0.0000 0.0000 0.0000 -31.2142 0.4266 12.5884 0.5391 4.7045 13.0677 0.8970 -4.4978 -16.9517 0.3310 -3.6976 -10.2274 0.0000 0.0000 0.0000 9.4665 12.9048 -31.0949 -1.7858 -8.4049 23.9507 0.5006 -15.4768 -15.5902 -0.4387 -4.2500 11.7810 -8.1761 -1.8932 18.4738 0.8860 -4.1377 0.6755 6.6750 -1.6128 -8.9858 -4.2754 -7.1522 -6.8675 -1.1484 -9.4238 33.1998 -0.8615 -4.9214 12.2220 0.0000 0.0000 0.0000 -76.4757 -3.7362 31.4651 36.1581 -45.6216 -15.6354 -0.0000 0.0000 -6.3471 20.0014 43.0601 13.9567 -7.1250 0.0000 -0.0000 -29.3359 73.0204 -19.9461 0.0000 0.0000 0.0000 62.0436 17.2764 0.8767 -63.6698 57.2111 -37.4109 0.0000 0.0000 25.5827 -16.1440 9.1058 -2.6229 7.1250 -0.0000 -0.0000 7.7319 -20.5462 4.5677
3.2519 17.4710 -9.7847 7.0636 0.0845 -2.2709 0.0000 0.0000 0.0000 -30.9882 0.7131 13.6069 0.4642 4.3701 12.1203 0.8676 -4.6887 -16.6492 0.3964 -4.0427 -11.1967 0.0000 0.0000 0.0000 8.7036 13.9812 -30.5406 -1.5259 -7.7994 22.1066 0.5444 -16.5037 -17.0550 -0.4408 -4.2603 11.8101 -8.0588 -1.8633 18.3434 0.8594 -4.0644 0.6705 6.5526 -1.5860 -8.9409 -4.3410 -7.3027 -6.7461 -0.9232 -9.6925 33.0185 -0.7894 -5.0213 12.1459 0.0000 -0.0000 0.0000 -76.4172 -4.1532 32.3509 36.2904 -45.7119 -15.7300 -0.0000 0.0000 -6.0590 19.7782 43.0390 13.7890 -7.1250 0.0000 -0.0000 -29.5591 72.9237 -20.0449 0.0000 -0.0000 0.0000 62.3264 17.3418 1.1852 -59.5315 56.1838 -33.9515 0.0000 0.0000 26.4632 -15.7877 9.3356 -2.6260 7.1250 -0.0000 -0.0000 7.9823 -20.3291 4.7578
